<svg id="svg" version="1.1" xmlns="http://www.w3.org/2000/svg" xmlns:xlink="http://www.w3.org/1999/xlink" width="400" height="400" viewBox="0, 0, 400,400"><g id="svgg"><path id="path0" d="M57.796 165.355 C 38.080 170.147,34.318 204.961,52.400 215.290 C 60.593 219.970,73.539 218.228,79.920 211.587 C 82.250 209.162,85.600 202.139,85.600 199.679 C 85.600 199.612,84.764 199.611,83.742 199.678 C 81.949 199.796,81.868 199.856,81.408 201.421 C 79.491 207.939,74.449 212.857,68.494 214.018 C 55.477 216.555,45.820 208.887,44.563 195.017 L 44.290 192.000 65.145 192.000 L 86.000 192.000 86.000 188.675 C 86.000 172.356,73.049 161.648,57.796 165.355 M156.357 165.380 C 151.767 166.646,146.721 170.720,144.800 174.710 C 143.348 177.726,143.200 177.400,143.200 171.200 L 143.200 165.600 141.400 165.600 L 139.600 165.600 139.600 200.400 L 139.600 235.200 141.400 235.200 L 143.200 235.200 143.200 221.200 C 143.200 213.500,143.335 207.200,143.500 207.200 C 143.665 207.201,144.296 208.083,144.901 209.162 C 151.428 220.782,172.495 220.890,180.438 209.344 C 186.624 200.354,186.726 183.359,180.651 174.200 C 175.611 166.603,165.385 162.890,156.357 165.380 M235.117 165.420 C 220.853 168.879,213.462 191.153,221.487 206.500 C 230.755 224.224,259.554 220.541,262.640 201.238 L 262.902 199.600 261.239 199.600 C 260.006 199.600,259.517 199.781,259.351 200.300 C 256.107 210.454,250.184 214.741,239.981 214.321 C 229.793 213.901,223.162 206.817,222.179 195.304 L 221.897 192.007 242.649 191.904 L 263.400 191.800 263.521 189.480 C 264.372 173.104,250.809 161.615,235.117 165.420 M283.717 165.425 C 276.440 167.020,272.605 171.293,272.608 177.802 C 272.613 186.063,278.069 190.016,292.772 192.412 C 300.803 193.721,306.710 197.183,307.426 201.000 C 308.939 209.065,304.051 213.735,293.519 214.287 C 283.029 214.837,275.662 210.003,274.543 201.836 L 274.291 200.000 272.546 200.000 C 270.549 200.000,270.480 200.205,271.206 204.031 C 272.839 212.641,280.325 217.736,291.400 217.776 C 304.177 217.822,311.191 212.857,311.198 203.764 C 311.205 194.884,307.540 192.072,291.472 188.626 C 279.311 186.018,275.202 182.785,276.224 176.630 C 278.278 164.261,305.819 165.528,305.997 178.000 C 306.031 180.384,306.373 180.800,308.301 180.800 L 310.109 180.800 309.851 178.900 C 308.339 167.757,297.819 162.333,283.717 165.425 M331.717 165.425 C 324.440 167.020,320.605 171.293,320.608 177.802 C 320.613 186.063,326.069 190.016,340.772 192.412 C 348.803 193.721,354.710 197.183,355.426 201.000 C 356.939 209.065,352.051 213.735,341.519 214.287 C 331.029 214.837,323.662 210.003,322.543 201.836 L 322.291 200.000 320.546 200.000 C 318.549 200.000,318.480 200.205,319.206 204.031 C 320.839 212.641,328.325 217.736,339.400 217.776 C 352.177 217.822,359.191 212.857,359.198 203.764 C 359.205 194.884,355.540 192.072,339.472 188.626 C 327.311 186.018,323.202 182.785,324.224 176.630 C 326.278 164.261,353.819 165.528,353.997 178.000 C 354.031 180.384,354.373 180.800,356.301 180.800 L 358.109 180.800 357.851 178.900 C 356.339 167.757,345.819 162.333,331.717 165.425 M90.341 166.700 C 90.779 167.305,92.321 169.330,93.768 171.200 C 95.214 173.070,97.913 176.580,99.764 179.000 C 101.616 181.420,104.230 184.835,105.574 186.589 C 108.367 190.235,108.386 189.756,105.284 193.863 C 98.715 202.559,88.400 216.462,88.400 216.620 C 88.400 216.719,89.381 216.800,90.580 216.800 L 92.759 216.800 97.449 210.500 C 112.088 190.837,110.553 192.587,111.760 194.199 C 112.926 195.755,120.074 205.573,124.502 211.700 L 128.188 216.800 130.693 216.800 L 133.198 216.800 131.494 214.500 C 130.556 213.235,126.034 207.199,121.445 201.088 L 113.100 189.975 117.272 184.488 C 119.567 181.469,123.730 175.985,126.523 172.300 L 131.602 165.600 129.240 165.600 L 126.878 165.600 119.013 176.100 C 114.687 181.875,110.994 186.655,110.806 186.723 C 110.618 186.790,106.895 182.065,102.532 176.223 L 94.600 165.601 92.073 165.601 L 89.546 165.600 90.341 166.700 M194.000 191.200 L 194.000 216.800 195.976 216.800 L 197.953 216.800 198.076 199.900 L 198.200 183.000 199.512 180.229 C 202.742 173.410,208.896 169.200,215.636 169.200 L 218.000 169.200 218.000 167.342 L 218.000 165.485 215.100 165.708 C 208.298 166.233,201.019 170.558,198.940 175.308 L 198.200 177.000 198.089 171.300 L 197.978 165.600 195.989 165.600 L 194.000 165.600 194.000 191.200 M71.373 169.529 C 74.872 171.166,78.256 174.572,79.954 178.164 C 81.187 180.776,82.686 187.613,82.198 188.403 C 81.942 188.817,46.169 188.993,45.106 188.585 C 44.071 188.188,45.485 181.822,47.498 177.822 C 51.722 169.425,62.873 165.551,71.373 169.529 M170.129 169.535 C 186.573 177.630,184.972 209.286,167.890 213.834 C 156.502 216.866,146.526 210.997,144.238 199.921 C 141.429 186.323,145.136 174.434,153.607 169.870 C 157.986 167.511,165.700 167.355,170.129 169.535 M248.182 169.147 C 252.864 171.227,255.971 174.548,258.077 179.722 C 259.349 182.848,260.156 188.024,259.444 188.494 C 258.858 188.881,223.139 188.876,222.529 188.488 C 221.405 187.773,223.734 179.493,225.978 176.232 C 230.930 169.034,240.823 165.877,248.182 169.147 " stroke="none" fill="#f7f7f7" fill-rule="evenodd"></path><path id="path1" d="M183.400 5.459 C 181.860 5.543,180.240 5.767,179.800 5.957 C 179.360 6.147,176.030 6.611,172.400 6.987 C 168.770 7.363,165.620 7.808,165.400 7.976 C 165.180 8.144,163.020 8.597,160.600 8.983 C 158.180 9.369,156.020 9.819,155.800 9.983 C 155.580 10.147,153.780 10.595,151.800 10.979 C 149.820 11.362,148.015 11.828,147.789 12.013 C 147.563 12.198,146.033 12.652,144.389 13.022 C 142.745 13.391,141.220 13.825,141.000 13.985 C 140.780 14.145,139.700 14.510,138.600 14.797 C 137.500 15.084,135.870 15.640,134.977 16.034 C 134.085 16.427,132.510 16.962,131.477 17.222 C 130.445 17.482,129.600 17.830,129.600 17.995 C 129.600 18.160,128.520 18.598,127.200 18.968 C 125.880 19.338,124.800 19.773,124.800 19.933 C 124.800 20.094,123.980 20.467,122.978 20.763 C 121.976 21.059,120.909 21.549,120.606 21.851 C 120.304 22.153,119.793 22.400,119.469 22.400 C 119.146 22.400,117.918 22.903,116.741 23.518 C 115.563 24.132,113.970 24.891,113.200 25.203 C 112.430 25.515,111.620 25.912,111.400 26.085 C 111.180 26.258,109.560 27.145,107.800 28.055 C 106.040 28.965,104.510 29.825,104.400 29.966 C 104.290 30.107,103.435 30.559,102.500 30.972 C 101.565 31.384,100.800 31.874,100.800 32.061 C 100.800 32.247,100.557 32.400,100.260 32.400 C 99.963 32.400,98.975 32.940,98.063 33.600 C 97.152 34.260,96.259 34.800,96.079 34.800 C 95.898 34.800,95.392 35.115,94.954 35.500 C 94.039 36.303,92.869 37.085,92.000 37.473 C 91.670 37.621,91.310 37.849,91.200 37.980 C 91.090 38.111,90.465 38.560,89.810 38.977 C 89.156 39.394,88.436 39.883,88.210 40.063 C 86.343 41.550,83.924 43.200,83.611 43.200 C 83.400 43.200,83.035 43.560,82.800 44.000 C 82.565 44.440,82.110 44.800,81.789 44.800 C 81.469 44.800,80.982 45.160,80.707 45.600 C 80.432 46.040,80.026 46.403,79.804 46.406 C 79.582 46.410,78.770 46.952,78.000 47.611 C 77.230 48.269,76.008 49.302,75.284 49.904 C 71.897 52.726,69.332 55.152,62.242 62.242 C 55.152 69.332,52.726 71.897,49.904 75.284 C 49.302 76.008,48.269 77.230,47.611 78.000 C 46.952 78.770,46.410 79.582,46.406 79.804 C 46.403 80.026,46.040 80.432,45.600 80.707 C 45.160 80.982,44.800 81.469,44.800 81.789 C 44.800 82.110,44.440 82.565,44.000 82.800 C 43.560 83.035,43.200 83.400,43.200 83.611 C 43.200 83.924,41.550 86.343,40.063 88.210 C 39.883 88.436,39.394 89.156,38.977 89.810 C 38.560 90.465,38.124 91.090,38.009 91.200 C 37.723 91.474,36.855 92.870,36.518 93.600 C 36.365 93.930,35.916 94.549,35.520 94.975 C 35.124 95.402,34.800 95.898,34.800 96.079 C 34.800 96.259,34.260 97.152,33.600 98.063 C 32.940 98.975,32.400 99.963,32.400 100.260 C 32.400 100.557,32.247 100.800,32.061 100.800 C 31.874 100.800,31.384 101.565,30.972 102.500 C 30.559 103.435,30.107 104.290,29.966 104.400 C 29.825 104.510,28.965 106.040,28.055 107.800 C 27.145 109.560,26.258 111.180,26.085 111.400 C 25.912 111.620,25.515 112.430,25.203 113.200 C 24.891 113.970,24.132 115.563,23.518 116.741 C 22.903 117.918,22.400 119.146,22.400 119.469 C 22.400 119.793,22.153 120.304,21.851 120.606 C 21.549 120.909,21.059 121.976,20.763 122.978 C 20.467 123.980,20.094 124.800,19.933 124.800 C 19.773 124.800,19.338 125.880,18.968 127.200 C 18.598 128.520,18.160 129.600,17.995 129.600 C 17.830 129.600,17.482 130.445,17.222 131.477 C 16.962 132.510,16.427 134.085,16.034 134.977 C 15.640 135.870,15.084 137.500,14.797 138.600 C 14.510 139.700,14.145 140.780,13.985 141.000 C 13.825 141.220,13.391 142.745,13.022 144.389 C 12.652 146.033,12.198 147.563,12.013 147.789 C 11.828 148.015,11.362 149.820,10.979 151.800 C 10.595 153.780,10.147 155.580,9.983 155.800 C 9.819 156.020,9.369 158.180,8.983 160.600 C 8.597 163.020,8.144 165.180,7.976 165.400 C 7.808 165.620,7.363 168.770,6.987 172.400 C 6.611 176.030,6.100 179.432,5.851 179.961 C 5.217 181.311,5.217 218.689,5.851 220.039 C 6.100 220.568,6.611 223.970,6.987 227.600 C 7.363 231.230,7.808 234.380,7.976 234.600 C 8.144 234.820,8.597 236.980,8.983 239.400 C 9.369 241.820,9.819 243.980,9.983 244.200 C 10.147 244.420,10.595 246.220,10.979 248.200 C 11.362 250.180,11.828 251.985,12.013 252.211 C 12.198 252.437,12.652 253.967,13.022 255.611 C 13.391 257.255,13.825 258.780,13.985 259.000 C 14.145 259.220,14.510 260.300,14.797 261.400 C 15.084 262.500,15.640 264.130,16.034 265.023 C 16.427 265.915,16.962 267.490,17.222 268.523 C 17.482 269.555,17.830 270.400,17.995 270.400 C 18.160 270.400,18.598 271.480,18.968 272.800 C 19.338 274.120,19.773 275.200,19.933 275.200 C 20.094 275.200,20.467 276.020,20.763 277.022 C 21.059 278.024,21.549 279.091,21.851 279.394 C 22.153 279.696,22.400 280.207,22.400 280.531 C 22.400 280.854,22.903 282.082,23.518 283.259 C 24.132 284.437,24.891 286.030,25.203 286.800 C 25.515 287.570,25.912 288.380,26.085 288.600 C 26.258 288.820,27.145 290.440,28.055 292.200 C 28.965 293.960,29.825 295.490,29.966 295.600 C 30.107 295.710,30.559 296.565,30.972 297.500 C 31.384 298.435,31.874 299.200,32.061 299.200 C 32.247 299.200,32.400 299.443,32.400 299.740 C 32.400 300.037,32.940 301.025,33.600 301.937 C 34.260 302.848,34.800 303.741,34.800 303.921 C 34.800 304.102,35.115 304.608,35.500 305.046 C 36.303 305.961,37.085 307.131,37.473 308.000 C 37.621 308.330,37.849 308.690,37.980 308.800 C 38.111 308.910,38.560 309.535,38.977 310.190 C 39.394 310.844,39.883 311.564,40.063 311.790 C 41.550 313.657,43.200 316.076,43.200 316.389 C 43.200 316.600,43.560 316.965,44.000 317.200 C 44.440 317.435,44.800 317.890,44.800 318.211 C 44.800 318.531,45.160 319.018,45.600 319.293 C 46.040 319.568,46.403 319.974,46.406 320.196 C 46.410 320.418,46.952 321.230,47.611 322.000 C 48.269 322.770,49.302 323.992,49.904 324.716 C 52.726 328.103,55.152 330.668,62.242 337.758 C 69.332 344.848,71.897 347.274,75.284 350.096 C 76.008 350.698,77.230 351.731,78.000 352.389 C 78.770 353.048,79.582 353.590,79.804 353.594 C 80.026 353.597,80.432 353.960,80.707 354.400 C 80.982 354.840,81.469 355.200,81.789 355.200 C 82.110 355.200,82.565 355.560,82.800 356.000 C 83.035 356.440,83.400 356.800,83.611 356.800 C 83.924 356.800,86.343 358.450,88.210 359.937 C 88.436 360.117,89.156 360.606,89.810 361.023 C 90.465 361.440,91.090 361.876,91.200 361.991 C 91.474 362.277,92.870 363.145,93.600 363.482 C 93.930 363.635,94.549 364.084,94.975 364.480 C 95.402 364.876,95.898 365.200,96.079 365.200 C 96.259 365.200,97.152 365.740,98.063 366.400 C 98.975 367.060,99.963 367.600,100.260 367.600 C 100.557 367.600,100.800 367.753,100.800 367.939 C 100.800 368.126,101.565 368.616,102.500 369.028 C 103.435 369.441,104.290 369.893,104.400 370.034 C 104.510 370.175,106.040 371.035,107.800 371.945 C 109.560 372.855,111.180 373.742,111.400 373.915 C 111.620 374.088,112.430 374.485,113.200 374.797 C 113.970 375.109,115.563 375.868,116.741 376.482 C 117.918 377.097,119.146 377.600,119.469 377.600 C 119.793 377.600,120.304 377.847,120.606 378.149 C 120.909 378.451,121.976 378.941,122.978 379.237 C 123.980 379.533,124.800 379.906,124.800 380.067 C 124.800 380.227,125.880 380.662,127.200 381.032 C 128.520 381.402,129.600 381.840,129.600 382.005 C 129.600 382.170,130.445 382.518,131.477 382.778 C 132.510 383.038,134.085 383.573,134.977 383.966 C 135.870 384.360,137.500 384.916,138.600 385.203 C 139.700 385.490,140.780 385.855,141.000 386.015 C 141.220 386.175,142.745 386.609,144.389 386.978 C 146.033 387.348,147.563 387.802,147.789 387.987 C 148.015 388.172,149.820 388.638,151.800 389.021 C 153.780 389.405,155.580 389.853,155.800 390.017 C 156.020 390.181,158.180 390.631,160.600 391.017 C 163.020 391.403,165.180 391.856,165.400 392.024 C 165.620 392.192,168.770 392.637,172.400 393.013 C 176.030 393.389,179.432 393.900,179.961 394.149 C 180.632 394.464,186.664 394.600,200.000 394.600 C 213.336 394.600,219.368 394.464,220.039 394.149 C 220.568 393.900,223.970 393.389,227.600 393.013 C 231.230 392.637,234.380 392.192,234.600 392.024 C 234.820 391.856,236.980 391.403,239.400 391.017 C 241.820 390.631,243.980 390.181,244.200 390.017 C 244.420 389.853,246.220 389.405,248.200 389.021 C 250.180 388.638,251.985 388.172,252.211 387.987 C 252.437 387.802,253.967 387.348,255.611 386.978 C 257.255 386.609,258.780 386.175,259.000 386.015 C 259.220 385.855,260.300 385.490,261.400 385.203 C 262.500 384.916,264.130 384.360,265.023 383.966 C 265.915 383.573,267.490 383.038,268.523 382.778 C 269.555 382.518,270.400 382.170,270.400 382.005 C 270.400 381.840,271.480 381.402,272.800 381.032 C 274.120 380.662,275.200 380.227,275.200 380.067 C 275.200 379.906,276.020 379.533,277.022 379.237 C 278.024 378.941,279.091 378.451,279.394 378.149 C 279.696 377.847,280.207 377.600,280.531 377.600 C 280.854 377.600,282.082 377.097,283.259 376.482 C 284.437 375.868,286.030 375.109,286.800 374.797 C 287.570 374.485,288.380 374.088,288.600 373.915 C 288.820 373.742,290.440 372.855,292.200 371.945 C 293.960 371.035,295.490 370.175,295.600 370.034 C 295.710 369.893,296.565 369.441,297.500 369.028 C 298.435 368.616,299.200 368.126,299.200 367.939 C 299.200 367.753,299.443 367.600,299.740 367.600 C 300.037 367.600,301.025 367.060,301.937 366.400 C 302.848 365.740,303.741 365.200,303.921 365.200 C 304.102 365.200,304.608 364.885,305.046 364.500 C 305.961 363.697,307.131 362.915,308.000 362.527 C 308.330 362.379,308.690 362.151,308.800 362.020 C 308.910 361.889,309.535 361.440,310.190 361.023 C 310.844 360.606,311.564 360.117,311.790 359.937 C 313.657 358.450,316.076 356.800,316.389 356.800 C 316.600 356.800,316.965 356.440,317.200 356.000 C 317.435 355.560,317.890 355.200,318.211 355.200 C 318.531 355.200,319.018 354.840,319.293 354.400 C 319.568 353.960,319.974 353.597,320.196 353.594 C 320.418 353.590,321.230 353.048,322.000 352.389 C 322.770 351.731,323.992 350.698,324.716 350.096 C 328.103 347.274,330.668 344.848,337.758 337.758 C 344.848 330.668,347.274 328.103,350.096 324.716 C 350.698 323.992,351.731 322.770,352.389 322.000 C 353.048 321.230,353.590 320.418,353.594 320.196 C 353.597 319.974,353.960 319.568,354.400 319.293 C 354.840 319.018,355.200 318.531,355.200 318.211 C 355.200 317.890,355.560 317.435,356.000 317.200 C 356.440 316.965,356.800 316.600,356.800 316.389 C 356.800 316.076,358.450 313.657,359.937 311.790 C 360.117 311.564,360.606 310.844,361.023 310.190 C 361.440 309.535,361.876 308.910,361.991 308.800 C 362.277 308.526,363.145 307.130,363.482 306.400 C 363.635 306.070,364.084 305.451,364.480 305.025 C 364.876 304.598,365.200 304.102,365.200 303.921 C 365.200 303.741,365.740 302.848,366.400 301.937 C 367.060 301.025,367.600 300.037,367.600 299.740 C 367.600 299.443,367.753 299.200,367.939 299.200 C 368.126 299.200,368.616 298.435,369.028 297.500 C 369.441 296.565,369.893 295.710,370.034 295.600 C 370.175 295.490,371.035 293.960,371.945 292.200 C 372.855 290.440,373.742 288.820,373.915 288.600 C 374.088 288.380,374.485 287.570,374.797 286.800 C 375.109 286.030,375.868 284.437,376.482 283.259 C 377.097 282.082,377.600 280.854,377.600 280.531 C 377.600 280.207,377.847 279.696,378.149 279.394 C 378.451 279.091,378.941 278.024,379.237 277.022 C 379.533 276.020,379.906 275.200,380.067 275.200 C 380.227 275.200,380.662 274.120,381.032 272.800 C 381.402 271.480,381.840 270.400,382.005 270.400 C 382.170 270.400,382.518 269.555,382.778 268.523 C 383.038 267.490,383.573 265.915,383.966 265.023 C 384.360 264.130,384.916 262.500,385.203 261.400 C 385.490 260.300,385.855 259.220,386.015 259.000 C 386.175 258.780,386.609 257.255,386.978 255.611 C 387.348 253.967,387.802 252.437,387.987 252.211 C 388.172 251.985,388.638 250.180,389.021 248.200 C 389.405 246.220,389.853 244.420,390.017 244.200 C 390.181 243.980,390.631 241.820,391.017 239.400 C 391.403 236.980,391.856 234.820,392.024 234.600 C 392.192 234.380,392.637 231.230,393.013 227.600 C 393.389 223.970,393.900 220.568,394.149 220.039 C 394.464 219.368,394.600 213.336,394.600 200.000 C 394.600 186.664,394.464 180.632,394.149 179.961 C 393.900 179.432,393.389 176.030,393.013 172.400 C 392.637 168.770,392.192 165.620,392.024 165.400 C 391.856 165.180,391.403 163.020,391.017 160.600 C 390.631 158.180,390.181 156.020,390.017 155.800 C 389.853 155.580,389.405 153.780,389.021 151.800 C 388.638 149.820,388.172 148.015,387.987 147.789 C 387.802 147.563,387.348 146.033,386.978 144.389 C 386.609 142.745,386.175 141.220,386.015 141.000 C 385.855 140.780,385.490 139.700,385.203 138.600 C 384.916 137.500,384.360 135.870,383.966 134.977 C 383.573 134.085,383.038 132.510,382.778 131.477 C 382.518 130.445,382.170 129.600,382.005 129.600 C 381.840 129.600,381.402 128.520,381.032 127.200 C 380.662 125.880,380.227 124.800,380.067 124.800 C 379.906 124.800,379.533 123.980,379.237 122.978 C 378.941 121.976,378.451 120.909,378.149 120.606 C 377.847 120.304,377.600 119.793,377.600 119.469 C 377.600 119.146,377.097 117.918,376.482 116.741 C 375.868 115.563,375.109 113.970,374.797 113.200 C 374.485 112.430,374.088 111.620,373.915 111.400 C 373.742 111.180,372.855 109.560,371.945 107.800 C 371.035 106.040,370.175 104.510,370.034 104.400 C 369.893 104.290,369.441 103.435,369.028 102.500 C 368.616 101.565,368.126 100.800,367.939 100.800 C 367.753 100.800,367.600 100.557,367.600 100.260 C 367.600 99.963,367.060 98.975,366.400 98.063 C 365.740 97.152,365.200 96.259,365.200 96.079 C 365.200 95.898,364.885 95.392,364.500 94.954 C 363.697 94.039,362.915 92.869,362.527 92.000 C 362.379 91.670,362.151 91.310,362.020 91.200 C 361.889 91.090,361.440 90.465,361.023 89.810 C 360.606 89.156,360.117 88.436,359.937 88.210 C 358.450 86.343,356.800 83.924,356.800 83.611 C 356.800 83.400,356.440 83.035,356.000 82.800 C 355.560 82.565,355.200 82.110,355.200 81.789 C 355.200 81.469,354.840 80.982,354.400 80.707 C 353.960 80.432,353.597 80.026,353.594 79.804 C 353.590 79.582,353.048 78.770,352.389 78.000 C 351.731 77.230,350.698 76.008,350.096 75.284 C 347.274 71.897,344.848 69.332,337.758 62.242 C 330.668 55.152,328.103 52.726,324.716 49.904 C 323.992 49.302,322.770 48.269,322.000 47.611 C 321.230 46.952,320.418 46.410,320.196 46.406 C 319.974 46.403,319.568 46.040,319.293 45.600 C 319.018 45.160,318.531 44.800,318.211 44.800 C 317.890 44.800,317.435 44.440,317.200 44.000 C 316.965 43.560,316.600 43.200,316.389 43.200 C 316.076 43.200,313.657 41.550,311.790 40.063 C 311.564 39.883,310.844 39.394,310.190 38.977 C 309.535 38.560,308.910 38.124,308.800 38.009 C 308.526 37.723,307.130 36.855,306.400 36.518 C 306.070 36.365,305.451 35.916,305.025 35.520 C 304.598 35.124,304.102 34.800,303.921 34.800 C 303.741 34.800,302.848 34.260,301.937 33.600 C 301.025 32.940,300.037 32.400,299.740 32.400 C 299.443 32.400,299.200 32.247,299.200 32.061 C 299.200 31.874,298.435 31.384,297.500 30.972 C 296.565 30.559,295.710 30.107,295.600 29.966 C 295.490 29.825,293.960 28.965,292.200 28.055 C 290.440 27.145,288.820 26.258,288.600 26.085 C 288.380 25.912,287.570 25.515,286.800 25.203 C 286.030 24.891,284.437 24.132,283.259 23.518 C 282.082 22.903,280.854 22.400,280.531 22.400 C 280.207 22.400,279.696 22.153,279.394 21.851 C 279.091 21.549,278.024 21.059,277.022 20.763 C 276.020 20.467,275.200 20.094,275.200 19.933 C 275.200 19.773,274.120 19.338,272.800 18.968 C 271.480 18.598,270.400 18.160,270.400 17.995 C 270.400 17.830,269.555 17.482,268.523 17.222 C 267.490 16.962,265.915 16.427,265.023 16.034 C 264.130 15.640,262.500 15.084,261.400 14.797 C 260.300 14.510,259.220 14.145,259.000 13.985 C 258.780 13.825,257.255 13.391,255.611 13.022 C 253.967 12.652,252.437 12.198,252.211 12.013 C 251.985 11.828,250.180 11.362,248.200 10.979 C 246.220 10.595,244.420 10.147,244.200 9.983 C 243.980 9.819,241.820 9.369,239.400 8.983 C 236.980 8.597,234.820 8.144,234.600 7.976 C 234.380 7.808,231.230 7.366,227.600 6.993 C 223.970 6.620,220.640 6.120,220.200 5.882 C 219.416 5.457,189.738 5.116,183.400 5.459 M73.224 166.075 C 81.142 169.767,85.691 177.353,86.286 187.853 L 86.520 191.993 65.760 192.096 L 45.000 192.200 45.120 194.600 C 45.301 198.216,45.932 200.939,47.273 203.896 C 53.814 218.322,75.938 217.350,80.593 202.433 C 81.515 199.479,81.794 199.200,83.825 199.200 C 86.011 199.200,86.113 199.397,85.380 202.211 C 82.260 214.189,69.552 220.920,56.600 217.455 C 36.574 212.098,34.460 175.588,53.647 166.468 C 59.255 163.802,67.975 163.627,73.224 166.075 M171.156 165.756 C 180.801 169.912,185.333 178.170,185.337 191.600 C 185.340 201.862,183.124 207.964,177.590 212.935 C 168.124 221.437,149.769 219.373,144.377 209.200 C 143.642 207.812,143.635 207.921,143.618 221.700 L 143.600 235.600 141.398 235.600 L 139.196 235.600 139.298 200.500 L 139.400 165.400 141.400 165.400 L 143.400 165.400 143.600 170.757 L 143.800 176.115 144.550 174.410 C 148.168 166.183,161.833 161.739,171.156 165.756 M248.910 165.373 C 258.274 168.678,264.000 177.862,264.000 189.577 L 264.000 192.000 243.200 192.000 L 222.400 192.000 222.405 193.500 C 222.447 205.350,229.770 213.629,240.480 213.933 C 249.907 214.201,255.717 210.205,258.416 201.600 L 259.106 199.400 261.009 199.276 C 263.690 199.101,263.822 199.416,262.584 203.049 C 258.853 214.000,252.181 218.308,239.524 217.938 C 226.027 217.544,218.072 207.933,218.014 191.952 C 217.969 179.565,223.052 170.052,231.777 166.193 C 236.585 164.067,244.179 163.704,248.910 165.373 M300.863 165.942 C 306.288 168.247,309.560 172.698,309.916 178.258 L 310.105 181.200 308.053 181.200 C 306.064 181.200,306.000 181.165,306.000 180.063 C 306.000 172.663,299.336 167.977,289.600 168.531 C 281.055 169.017,276.663 172.217,276.669 177.953 C 276.674 183.779,280.349 186.033,294.600 188.947 C 307.418 191.568,311.185 194.702,311.522 203.027 C 311.922 212.905,305.216 217.974,291.720 217.993 C 279.359 218.011,271.435 212.219,270.520 202.500 L 270.284 200.000 272.497 200.000 L 274.709 200.000 274.978 201.900 C 276.014 209.231,281.977 213.647,291.200 213.913 C 301.480 214.209,307.216 210.572,307.191 203.774 C 307.166 196.967,303.708 194.918,286.600 191.577 C 283.577 190.987,279.501 189.374,277.327 187.908 C 268.795 182.154,270.820 169.469,280.841 165.895 C 286.627 163.831,295.946 163.853,300.863 165.942 M348.863 165.942 C 354.288 168.247,357.560 172.698,357.916 178.258 L 358.105 181.200 356.053 181.200 C 354.064 181.200,354.000 181.165,354.000 180.063 C 354.000 172.663,347.336 167.977,337.600 168.531 C 329.055 169.017,324.663 172.217,324.669 177.953 C 324.674 183.779,328.349 186.033,342.600 188.947 C 355.418 191.568,359.185 194.702,359.522 203.027 C 359.922 212.905,353.216 217.974,339.720 217.993 C 327.359 218.011,319.435 212.219,318.520 202.500 L 318.284 200.000 320.497 200.000 L 322.709 200.000 322.978 201.900 C 324.014 209.231,329.977 213.647,339.200 213.913 C 349.480 214.209,355.216 210.572,355.191 203.774 C 355.166 196.967,351.708 194.918,334.600 191.577 C 331.577 190.987,327.501 189.374,325.327 187.908 C 316.795 182.154,318.820 169.469,328.841 165.895 C 334.627 163.831,343.946 163.853,348.863 165.942 M102.453 175.500 C 106.679 181.165,110.265 185.951,110.423 186.135 C 110.580 186.319,113.115 183.281,116.055 179.384 C 118.995 175.487,122.570 170.747,124.000 168.850 L 126.600 165.400 128.958 165.278 C 132.402 165.101,132.365 165.288,127.748 171.364 C 125.427 174.420,121.294 179.854,118.564 183.439 L 113.601 189.958 123.451 203.079 C 135.179 218.702,134.393 217.200,130.847 217.200 L 128.009 217.200 126.201 214.700 C 125.207 213.325,123.450 210.879,122.297 209.265 C 121.143 207.651,119.372 205.221,118.360 203.865 C 117.348 202.509,115.214 199.628,113.617 197.463 C 112.020 195.298,110.571 193.678,110.396 193.863 C 110.078 194.199,100.471 207.076,95.595 213.700 L 93.019 217.200 90.510 217.200 C 86.939 217.200,85.621 219.452,101.922 197.690 L 107.697 189.981 103.548 184.571 C 101.267 181.595,98.128 177.489,96.573 175.445 C 95.019 173.401,92.724 170.422,91.474 168.825 C 88.802 165.409,88.844 165.200,92.209 165.200 L 94.771 165.200 102.453 175.500 M198.018 170.700 L 198.035 176.200 198.857 174.641 C 201.511 169.610,209.595 165.200,216.167 165.200 L 218.000 165.200 218.000 167.344 L 218.000 169.487 214.700 169.695 C 210.610 169.952,207.029 171.516,204.245 174.260 C 198.550 179.875,198.000 182.378,198.000 202.700 L 198.000 217.200 196.000 217.200 L 194.000 217.200 194.000 191.200 L 194.000 165.200 196.000 165.200 L 198.000 165.200 198.018 170.700 M58.810 169.041 C 51.714 170.948,46.298 177.779,45.369 185.993 L 45.097 188.400 63.548 188.400 L 82.000 188.400 81.999 187.300 C 81.988 175.035,70.414 165.923,58.810 169.041 M156.813 169.040 C 148.434 171.292,143.856 179.275,143.874 191.600 C 143.897 206.563,149.939 213.999,162.077 214.000 C 174.166 214.000,180.965 205.866,180.965 191.400 C 180.965 175.013,170.531 165.354,156.813 169.040 M236.433 169.035 C 229.563 170.882,224.415 177.038,223.081 185.000 L 222.546 188.200 240.935 188.304 C 251.050 188.361,259.370 188.361,259.425 188.304 C 259.480 188.247,259.268 186.601,258.954 184.647 C 257.057 172.842,247.336 166.104,236.433 169.035 " stroke="none" fill="#343434" fill-rule="evenodd"></path><path id="path2" d="M62.100 164.694 C 63.145 164.776,64.855 164.776,65.900 164.694 C 66.945 164.612,66.090 164.544,64.000 164.544 C 61.910 164.544,61.055 164.612,62.100 164.694 M160.500 164.694 C 161.545 164.776,163.255 164.776,164.300 164.694 C 165.345 164.612,164.490 164.544,162.400 164.544 C 160.310 164.544,159.455 164.612,160.500 164.694 M239.513 164.695 C 240.676 164.776,242.476 164.776,243.513 164.693 C 244.551 164.611,243.600 164.545,241.400 164.546 C 239.200 164.547,238.351 164.614,239.513 164.695 M289.113 164.695 C 290.276 164.776,292.076 164.776,293.113 164.693 C 294.151 164.611,293.200 164.545,291.000 164.546 C 288.800 164.547,287.951 164.614,289.113 164.695 M337.113 164.695 C 338.276 164.776,340.076 164.776,341.113 164.693 C 342.151 164.611,341.200 164.545,339.000 164.546 C 336.800 164.547,335.951 164.614,337.113 164.695 M143.272 171.100 C 143.232 174.235,143.335 176.800,143.500 176.801 C 143.665 176.801,143.752 175.046,143.694 172.901 C 143.505 165.952,143.346 165.272,143.272 171.100 M225.375 170.900 L 224.200 172.200 225.500 171.025 C 226.215 170.379,226.800 169.794,226.800 169.725 C 226.800 169.416,226.470 169.688,225.375 170.900 M201.381 171.700 L 199.800 173.400 201.500 171.819 C 203.081 170.348,203.384 170.000,203.081 170.000 C 203.016 170.000,202.251 170.765,201.381 171.700 M302.400 171.800 C 303.146 172.570,303.847 173.200,303.957 173.200 C 304.067 173.200,303.546 172.570,302.800 171.800 C 302.054 171.030,301.353 170.400,301.243 170.400 C 301.133 170.400,301.654 171.030,302.400 171.800 M350.400 171.800 C 351.146 172.570,351.847 173.200,351.957 173.200 C 352.067 173.200,351.546 172.570,350.800 171.800 C 350.054 171.030,349.353 170.400,349.243 170.400 C 349.133 170.400,349.654 171.030,350.400 171.800 M76.000 173.000 C 76.746 173.770,77.447 174.400,77.557 174.400 C 77.667 174.400,77.146 173.770,76.400 173.000 C 75.654 172.230,74.953 171.600,74.843 171.600 C 74.733 171.600,75.254 172.230,76.000 173.000 M252.800 172.125 C 252.800 172.194,253.385 172.779,254.100 173.425 L 255.400 174.600 254.225 173.300 C 253.130 172.088,252.800 171.816,252.800 172.125 M203.578 174.300 L 202.200 175.800 203.700 174.422 C 205.096 173.138,205.384 172.800,205.078 172.800 C 205.012 172.800,204.337 173.475,203.578 174.300 M276.093 178.000 C 276.093 178.770,276.175 179.085,276.276 178.700 C 276.376 178.315,276.376 177.685,276.276 177.300 C 276.175 176.915,276.093 177.230,276.093 178.000 M324.093 178.000 C 324.093 178.770,324.175 179.085,324.276 178.700 C 324.376 178.315,324.376 177.685,324.276 177.300 C 324.175 176.915,324.093 177.230,324.093 178.000 M307.505 181.083 C 308.002 181.179,308.722 181.175,309.105 181.075 C 309.487 180.975,309.080 180.896,308.200 180.901 C 307.320 180.905,307.007 180.987,307.505 181.083 M355.505 181.083 C 356.002 181.179,356.722 181.175,357.105 181.075 C 357.487 180.975,357.080 180.896,356.200 180.901 C 355.320 180.905,355.007 180.987,355.505 181.083 M86.120 189.600 C 86.120 190.810,86.195 191.305,86.287 190.700 C 86.378 190.095,86.378 189.105,86.287 188.500 C 86.195 187.895,86.120 188.390,86.120 189.600 M54.300 188.700 C 59.415 188.763,67.785 188.763,72.900 188.700 C 78.015 188.636,73.830 188.585,63.600 188.585 C 53.370 188.585,49.185 188.636,54.300 188.700 M143.337 191.400 C 143.339 193.160,143.409 193.830,143.493 192.889 C 143.578 191.949,143.577 190.509,143.491 189.689 C 143.405 188.870,143.336 189.640,143.337 191.400 M231.927 188.700 C 237.058 188.763,245.338 188.763,250.327 188.700 C 255.317 188.636,251.120 188.584,241.000 188.584 C 230.880 188.584,226.797 188.636,231.927 188.700 M218.128 191.600 C 218.128 193.030,218.201 193.615,218.289 192.900 C 218.378 192.185,218.378 191.015,218.289 190.300 C 218.201 189.585,218.128 190.170,218.128 191.600 M40.520 191.600 C 40.520 192.810,40.595 193.305,40.687 192.700 C 40.778 192.095,40.778 191.105,40.687 190.500 C 40.595 189.895,40.520 190.390,40.520 191.600 M185.320 191.600 C 185.320 192.810,185.395 193.305,185.487 192.700 C 185.578 192.095,185.578 191.105,185.487 190.500 C 185.395 189.895,185.320 190.390,185.320 191.600 M44.493 194.400 C 44.493 195.170,44.575 195.485,44.676 195.100 C 44.776 194.715,44.776 194.085,44.676 193.700 C 44.575 193.315,44.493 193.630,44.493 194.400 M270.493 201.200 C 270.493 201.970,270.575 202.285,270.676 201.900 C 270.776 201.515,270.776 200.885,270.676 200.500 C 270.575 200.115,270.493 200.430,270.493 201.200 M318.493 201.200 C 318.493 201.970,318.575 202.285,318.676 201.900 C 318.776 201.515,318.776 200.885,318.676 200.500 C 318.575 200.115,318.493 200.430,318.493 201.200 M311.337 203.800 C 311.339 205.560,311.409 206.230,311.493 205.289 C 311.578 204.349,311.577 202.909,311.491 202.089 C 311.405 201.270,311.336 202.040,311.337 203.800 M359.337 203.800 C 359.339 205.560,359.409 206.230,359.493 205.289 C 359.578 204.349,359.577 202.909,359.491 202.089 C 359.405 201.270,359.336 202.040,359.337 203.800 M143.200 221.178 L 143.200 235.156 141.397 235.315 L 139.595 235.474 141.497 235.437 L 143.400 235.400 143.600 221.300 C 143.710 213.545,143.665 207.200,143.500 207.200 C 143.335 207.200,143.200 213.490,143.200 221.178 M149.200 209.800 C 149.946 210.570,150.647 211.200,150.757 211.200 C 150.867 211.200,150.346 210.570,149.600 209.800 C 148.854 209.030,148.153 208.400,148.043 208.400 C 147.933 208.400,148.454 209.030,149.200 209.800 M256.778 212.300 L 255.400 213.800 256.900 212.422 C 258.296 211.138,258.584 210.800,258.278 210.800 C 258.212 210.800,257.537 211.475,256.778 212.300 M275.400 212.400 C 276.259 213.280,277.052 214.000,277.162 214.000 C 277.272 214.000,276.659 213.280,275.800 212.400 C 274.941 211.520,274.148 210.800,274.038 210.800 C 273.928 210.800,274.541 211.520,275.400 212.400 M323.400 212.400 C 324.259 213.280,325.052 214.000,325.162 214.000 C 325.272 214.000,324.659 213.280,323.800 212.400 C 322.941 211.520,322.148 210.800,322.038 210.800 C 321.928 210.800,322.541 211.520,323.400 212.400 M92.921 216.439 C 92.670 216.690,91.536 216.819,90.278 216.739 C 89.066 216.663,88.158 216.735,88.261 216.900 C 88.618 217.476,92.678 217.229,93.200 216.600 C 93.776 215.906,93.571 215.789,92.921 216.439 M129.507 217.090 C 130.226 217.179,131.306 217.177,131.907 217.086 C 132.508 216.995,131.920 216.922,130.600 216.924 C 129.280 216.926,128.788 217.001,129.507 217.090 M195.100 217.082 C 195.595 217.178,196.405 217.178,196.900 217.082 C 197.395 216.987,196.990 216.909,196.000 216.909 C 195.010 216.909,194.605 216.987,195.100 217.082 " stroke="none" fill="#9c9c9c" fill-rule="evenodd"></path><path id="path3" d="M90.691 165.489 C 91.401 165.577,92.661 165.579,93.491 165.492 C 94.321 165.405,93.740 165.333,92.200 165.331 C 90.660 165.329,89.981 165.400,90.691 165.489 M127.400 165.438 C 129.274 165.739,131.909 165.777,131.738 165.500 C 131.636 165.335,130.438 165.225,129.076 165.254 C 127.714 165.284,126.960 165.367,127.400 165.438 M140.505 165.487 C 141.114 165.579,142.014 165.577,142.505 165.482 C 142.997 165.387,142.500 165.311,141.400 165.314 C 140.300 165.317,139.897 165.395,140.505 165.487 M194.900 165.487 C 195.505 165.578,196.495 165.578,197.100 165.487 C 197.705 165.395,197.210 165.320,196.000 165.320 C 194.790 165.320,194.295 165.395,194.900 165.487 M214.305 165.483 C 214.802 165.579,215.522 165.575,215.905 165.475 C 216.287 165.375,215.880 165.296,215.000 165.301 C 214.120 165.305,213.807 165.387,214.305 165.483 M62.707 168.290 C 63.426 168.379,64.506 168.377,65.107 168.286 C 65.708 168.195,65.120 168.122,63.800 168.124 C 62.480 168.126,61.988 168.201,62.707 168.290 M161.107 168.290 C 161.826 168.379,162.906 168.377,163.507 168.286 C 164.108 168.195,163.520 168.122,162.200 168.124 C 160.880 168.126,160.388 168.201,161.107 168.290 M240.307 168.290 C 241.026 168.379,242.106 168.377,242.707 168.286 C 243.308 168.195,242.720 168.122,241.400 168.124 C 240.080 168.126,239.588 168.201,240.307 168.290 M275.375 169.300 L 274.200 170.600 275.500 169.425 C 276.215 168.779,276.800 168.194,276.800 168.125 C 276.800 167.816,276.470 168.088,275.375 169.300 M289.491 168.289 C 290.201 168.377,291.461 168.379,292.291 168.292 C 293.121 168.205,292.540 168.133,291.000 168.131 C 289.460 168.129,288.781 168.200,289.491 168.289 M323.375 169.300 L 322.200 170.600 323.500 169.425 C 324.215 168.779,324.800 168.194,324.800 168.125 C 324.800 167.816,324.470 168.088,323.375 169.300 M337.491 168.289 C 338.201 168.377,339.461 168.379,340.291 168.292 C 341.121 168.205,340.540 168.133,339.000 168.131 C 337.460 168.129,336.781 168.200,337.491 168.289 M177.800 170.400 C 178.659 171.280,179.452 172.000,179.562 172.000 C 179.672 172.000,179.059 171.280,178.200 170.400 C 177.341 169.520,176.548 168.800,176.438 168.800 C 176.328 168.800,176.941 169.520,177.800 170.400 M215.300 169.476 C 215.685 169.576,216.315 169.576,216.700 169.476 C 217.085 169.375,216.770 169.293,216.000 169.293 C 215.230 169.293,214.915 169.375,215.300 169.476 M201.375 171.300 L 200.200 172.600 201.500 171.425 C 202.215 170.779,202.800 170.194,202.800 170.125 C 202.800 169.816,202.470 170.088,201.375 171.300 M174.600 173.200 C 175.459 174.080,176.252 174.800,176.362 174.800 C 176.472 174.800,175.859 174.080,175.000 173.200 C 174.141 172.320,173.348 171.600,173.238 171.600 C 173.128 171.600,173.741 172.320,174.600 173.200 M149.375 173.300 L 148.200 174.600 149.500 173.425 C 150.712 172.330,150.984 172.000,150.675 172.000 C 150.606 172.000,150.021 172.585,149.375 173.300 M228.575 173.300 L 227.400 174.600 228.700 173.425 C 229.415 172.779,230.000 172.194,230.000 172.125 C 230.000 171.816,229.670 172.088,228.575 173.300 M252.400 172.125 C 252.400 172.194,252.985 172.779,253.700 173.425 L 255.000 174.600 253.825 173.300 C 252.730 172.088,252.400 171.816,252.400 172.125 M272.109 177.600 C 272.109 178.590,272.187 178.995,272.282 178.500 C 272.378 178.005,272.378 177.195,272.282 176.700 C 272.187 176.205,272.109 176.610,272.109 177.600 M320.109 177.600 C 320.109 178.590,320.187 178.995,320.282 178.500 C 320.378 178.005,320.378 177.195,320.282 176.700 C 320.187 176.205,320.109 176.610,320.109 177.600 M44.901 195.000 C 44.905 195.880,44.987 196.193,45.083 195.695 C 45.179 195.198,45.175 194.478,45.075 194.095 C 44.975 193.713,44.896 194.120,44.901 195.000 M82.905 199.487 C 83.514 199.579,84.414 199.577,84.905 199.482 C 85.397 199.387,84.900 199.311,83.800 199.314 C 82.700 199.317,82.297 199.395,82.905 199.487 M258.996 199.607 C 258.844 199.852,258.828 200.161,258.960 200.293 C 259.092 200.425,259.200 200.323,259.200 200.067 C 259.200 199.480,263.048 199.428,263.337 200.010 C 263.449 200.236,263.494 200.191,263.439 199.910 C 263.308 199.253,259.380 198.985,258.996 199.607 M307.320 203.600 C 307.320 204.810,307.395 205.305,307.487 204.700 C 307.578 204.095,307.578 203.105,307.487 202.500 C 307.395 201.895,307.320 202.390,307.320 203.600 M355.320 203.600 C 355.320 204.810,355.395 205.305,355.487 204.700 C 355.578 204.095,355.578 203.105,355.487 202.500 C 355.395 201.895,355.320 202.390,355.320 203.600 M50.800 209.400 C 51.546 210.170,52.247 210.800,52.357 210.800 C 52.467 210.800,51.946 210.170,51.200 209.400 C 50.454 208.630,49.753 208.000,49.643 208.000 C 49.533 208.000,50.054 208.630,50.800 209.400 M79.578 212.300 L 78.200 213.800 79.700 212.422 C 81.096 211.138,81.384 210.800,81.078 210.800 C 81.012 210.800,80.337 211.475,79.578 212.300 M47.200 211.725 C 47.200 211.794,47.785 212.379,48.500 213.025 L 49.800 214.200 48.625 212.900 C 47.530 211.688,47.200 211.416,47.200 211.725 M147.200 213.000 C 147.946 213.770,148.647 214.400,148.757 214.400 C 148.867 214.400,148.346 213.770,147.600 213.000 C 146.854 212.230,146.153 211.600,146.043 211.600 C 145.933 211.600,146.454 212.230,147.200 213.000 M61.891 214.289 C 62.601 214.377,63.861 214.379,64.691 214.292 C 65.521 214.205,64.940 214.133,63.400 214.131 C 61.860 214.129,61.181 214.200,61.891 214.289 M160.500 214.291 C 161.325 214.378,162.675 214.378,163.500 214.291 C 164.325 214.205,163.650 214.134,162.000 214.134 C 160.350 214.134,159.675 214.205,160.500 214.291 M239.491 214.289 C 240.201 214.377,241.461 214.379,242.291 214.292 C 243.121 214.205,242.540 214.133,241.000 214.131 C 239.460 214.129,238.781 214.200,239.491 214.289 M290.100 214.291 C 290.925 214.378,292.275 214.378,293.100 214.291 C 293.925 214.205,293.250 214.134,291.600 214.134 C 289.950 214.134,289.275 214.205,290.100 214.291 M338.100 214.291 C 338.925 214.378,340.275 214.378,341.100 214.291 C 341.925 214.205,341.250 214.134,339.600 214.134 C 337.950 214.134,337.275 214.205,338.100 214.291 " stroke="none" fill="#7c7c7c" fill-rule="evenodd"></path><path id="path4" d="M139.391 200.400 C 139.391 219.650,139.440 227.525,139.500 217.900 C 139.560 208.275,139.560 192.525,139.500 182.900 C 139.440 173.275,139.391 181.150,139.391 200.400 M263.720 189.600 C 263.720 190.810,263.795 191.305,263.887 190.700 C 263.978 190.095,263.978 189.105,263.887 188.500 C 263.795 187.895,263.720 188.390,263.720 189.600 M181.324 191.400 C 181.326 192.720,181.401 193.212,181.490 192.493 C 181.579 191.774,181.577 190.694,181.486 190.093 C 181.395 189.492,181.322 190.080,181.324 191.400 " stroke="none" fill="#8c8c8c" fill-rule="evenodd"></path></g></svg>