<?xml version="1.0" encoding="UTF-8"?>
<svg version="1.1" xmlns="http://www.w3.org/2000/svg" width="2400" height="1912">
<path d="M0 0 C0.99563965 0.19867676 1.9912793 0.39735352 3.01708984 0.60205078 C48.8435831 10.08265957 89.05833378 31.95850012 122 65 C121.36996523 65.62987879 120.73993047 66.25975757 120.09080374 66.90872359 C58.68782358 128.29653367 -2.71502787 189.6844727 -85.63340759 272.59106445 C-86.66766294 273.62518035 -87.70191829 274.65929624 -88.73617363 275.69341214 C-110.44536707 297.3996829 -132.15445753 319.10605665 -153.86342904 340.81254936 C-164.76853187 351.7164068 -175.67365449 362.62024444 -186.57879581 373.52406337 C-188.22379718 375.16886549 -189.86879797 376.81366816 -191.51379875 378.45847087 C-216.84509504 403.78670711 -242.17681567 429.11451879 -267.50976562 454.44110107 C-268.05446447 454.98566302 -268.59916331 455.53022496 -269.16036818 456.09128878 C-277.94255281 464.87126104 -286.72477305 473.65119767 -295.50699801 482.43112957 C-320.80190486 507.71943294 -346.09654835 533.00799949 -371.38944912 558.29830933 C-371.90955814 558.81836481 -372.42966716 559.33842029 -372.96553706 559.87423504 C-384.3830828 571.29061503 -395.8004931 582.70713047 -407.21777516 594.12377418 C-411.81168165 598.71741904 -416.40560764 603.31104441 -420.99954033 607.90466309 C-421.50232631 608.40741564 -422.00511229 608.91016819 -422.52313421 609.42815567 C-438.72397294 625.6278979 -454.92639835 641.82605207 -471.12965652 658.02337431 C-487.90527624 674.79286334 -504.67913056 691.5641158 -521.45092858 708.3374272 C-531.12373418 718.01099478 -540.79793913 727.68315806 -550.47413351 737.35333597 C-556.93345204 743.80891166 -563.39096164 750.26629301 -569.84699045 756.72515864 C-573.52828349 760.40796499 -577.21036993 764.08996851 -580.89466 767.76977682 C-584.24648216 771.11755252 -587.59599285 774.46762291 -590.94367667 777.81953669 C-592.14752506 779.02409919 -593.35221211 780.22782427 -594.55784047 781.43060523 C-600.58313752 787.44257348 -606.53203408 793.46689004 -612 800 C-612.51895802 800.61863629 -613.03791605 801.23727258 -613.57260007 801.87465543 C-653.53751133 849.80897608 -672.74928771 911.27649812 -667.3125 973.4375 C-661.35724587 1031.0322242 -633.6914026 1088.22404027 -588.6875 1125.5 C-586.79693113 1127.00662981 -584.90090471 1128.50643202 -583 1130 C-582.00226563 1130.80308594 -581.00453125 1131.60617187 -579.9765625 1132.43359375 C-532.8232472 1170.01775477 -471.75787148 1186.10622203 -412.10205078 1180.23095703 C-371.29501383 1175.45210885 -331.56475818 1160.19456412 -299 1135 C-298.18660156 1134.37867188 -297.37320313 1133.75734375 -296.53515625 1133.1171875 C-284.87983261 1124.02124772 -274.42826636 1113.575653 -264.00453568 1103.12479019 C-262.73287215 1101.85356393 -261.46098835 1100.58255799 -260.18890685 1099.31174999 C-256.71114154 1095.83620711 -253.23648226 1092.35757379 -249.7623425 1088.87840733 C-245.97567003 1085.08737753 -242.18606414 1081.29928188 -238.39683318 1077.51080966 C-231.76184054 1070.87634895 -225.12869701 1064.24004405 -218.49677086 1057.60251808 C-208.63498323 1047.73242693 -198.77030453 1037.86522906 -188.90501518 1027.99863807 C-172.81585474 1011.90721619 -156.72873899 995.81375197 -140.64294567 979.71896422 C-123.70017972 962.76672533 -106.75621359 945.81568755 -89.81047821 928.86641693 C-89.04399411 928.0997721 -89.04399411 928.0997721 -88.26202548 927.31763949 C-82.55215581 921.60657871 -76.84224655 915.89555752 -71.13232109 910.18455252 C-60.57258533 899.62281747 -50.01301605 889.06091596 -39.4534874 878.49897385 C-38.92520275 877.97056891 -38.39691809 877.44216398 -37.85262482 876.89774678 C-12.72253151 851.76191528 12.40604417 826.62456679 37.53426881 801.48686719 C39.2011015 799.81940616 40.86793495 798.15194588 42.53476857 796.48448577 C59.27324087 779.73971898 76.01162877 762.99486783 92.75 746.25 C110.05098186 728.94230345 127.35198745 711.63463064 144.65307713 694.32704187 C146.32036383 692.65912852 147.98764977 690.99121442 149.65493562 689.32330023 C174.76940369 664.19937816 199.88432414 639.07590853 225.00065994 613.95385361 C225.5285012 613.4258917 226.05634245 612.89792979 226.6001789 612.35396903 C237.14581489 601.80592672 247.69151685 591.25795037 258.2373588 580.71011398 C263.94018178 575.00621147 269.64297666 569.30228087 275.34574127 563.59832001 C275.85592029 563.08803452 276.36609931 562.57774904 276.89173829 562.05200036 C293.83426002 545.10590657 310.77478085 528.157814 327.71435518 511.20877399 C344.20969854 494.70423302 360.70677006 478.20142135 377.20562306 461.70038876 C387.01257835 451.89201673 396.81810722 442.08222355 406.62163749 432.27042817 C413.16569171 425.72112685 419.71154774 419.17363013 426.25888324 412.62760911 C429.99201615 408.89511865 433.72434162 405.1618303 437.45446429 401.42633131 C440.84774992 398.02818341 444.24333198 394.63234797 447.64075982 391.23834153 C448.86177145 390.01775113 450.08194358 388.7963202 451.30117009 387.57394666 C477.78996334 361.02070323 506.3285014 343.93954767 544.8125 343.5625 C572.521683 343.69268409 599.05780892 352.52363905 620 371 C620.89074219 371.74765625 621.78148437 372.4953125 622.69921875 373.265625 C645.90318064 393.33041771 658.89818568 422.99362099 661.17285156 453.30322266 C662.62393922 481.36774567 654.32092295 512.17000846 635.32836398 533.42261587 C634.56000387 534.27315263 633.79164375 535.12368939 633 536 C632.35379218 536.73304865 631.70758436 537.4660973 631.04179448 538.22135954 C624.74093591 545.32994405 618.09429878 552.04560057 611.37367916 558.75216198 C610.10508763 560.02179833 608.83671501 561.29165345 607.56853983 562.56170568 C604.09097556 566.04315265 600.61032058 569.52149497 597.12914108 572.99932647 C593.33940386 576.7865224 589.55257151 580.57662109 585.76536423 584.36634666 C579.13001727 591.00530323 572.49281442 597.64239985 565.85438728 604.27827644 C555.98291755 614.14596377 546.11430755 624.0165074 536.24625757 633.88761446 C519.64396974 650.49486355 503.03929408 667.0997231 486.4331646 683.70313072 C485.92778455 684.20842798 485.4224045 684.71372523 484.9017099 685.23433453 C484.3955193 685.74044219 483.8893287 686.24654986 483.367799 686.76799412 C467.94263688 702.19063245 452.51841174 717.61420709 437.09510994 733.03870583 C436.06204887 734.07184437 435.02898764 735.10498276 433.99592626 736.13812098 C429.84443923 740.28991848 425.6929563 744.44172007 421.54147935 748.59352765 C409.93678262 760.19914134 398.33191273 771.80458187 386.72690678 783.40988636 C386.19846217 783.93834461 385.67001757 784.46680286 385.12555949 785.01127499 C368.28919586 801.84804785 351.45206444 818.68405269 334.61440945 835.51953411 C333.79533453 836.33850366 333.79533453 836.33850366 332.95971264 837.17401804 C324.09235011 846.04023564 315.22495031 854.90641597 306.35754735 863.77259315 C271.1838957 898.94138781 236.01278688 934.11272339 200.84399414 969.28637695 C191.97989361 978.15169867 183.11578801 987.01701532 174.251647 995.88229656 C173.43294786 996.70110137 173.43294786 996.70110137 172.59770934 997.53644769 C155.77787829 1014.35843487 138.95742643 1031.17980109 122.13630009 1048.00049305 C121.34423617 1048.79253659 121.34423617 1048.79253659 120.53617095 1049.60058102 C108.94495619 1061.19148331 97.35358086 1072.78222501 85.76206073 1084.37282191 C81.61460893 1088.51994456 77.46716517 1092.66707524 73.3197237 1096.81420822 C72.28795423 1097.8459003 71.25618409 1098.87759171 70.22441327 1099.90928245 C54.80270235 1115.32979977 39.38209684 1130.75142175 23.96224568 1146.17379874 C23.45678283 1146.67934439 22.95131999 1147.18489003 22.43054008 1147.70575523 C21.92601026 1148.21036774 21.42148044 1148.71498025 20.90166183 1149.23488404 C3.88738045 1166.25192323 -13.12878637 1183.2670748 -30.14708347 1200.28009804 C-39.96065044 1210.09072429 -49.77283519 1219.90272821 -59.58304787 1229.71670862 C-66.13163307 1236.2675318 -72.68202704 1242.81654258 -79.23391074 1249.36406672 C-82.96967786 1253.0974495 -86.70464639 1256.83162184 -90.43742795 1260.56798991 C-93.83315545 1263.96694688 -97.23117439 1267.36359536 -100.63103584 1270.75841714 C-101.85293313 1271.97930724 -103.07399443 1273.20103475 -104.2941141 1274.42370134 C-109.84491628 1279.98526749 -115.38120849 1285.51838938 -121.37323159 1290.61159008 C-123.56627408 1292.48330208 -125.66172716 1294.4515124 -127.7644043 1296.42333984 C-133.96201231 1302.23488017 -140.33616152 1307.7244612 -147 1313 C-147.91265625 1313.73742432 -147.91265625 1313.73742432 -148.84375 1314.48974609 C-167.69243808 1329.71687228 -187.97579651 1342.97709383 -209 1355 C-209.90089355 1355.51626953 -210.80178711 1356.03253906 -211.72998047 1356.56445312 C-276.54983338 1393.39976398 -351.52439973 1413.3121677 -426 1415 C-427.33200439 1415.03287109 -427.33200439 1415.03287109 -428.69091797 1415.06640625 C-526.87885429 1417.14043413 -622.70674761 1387.44619821 -746.375 1297.4140625 C-748.40601667 1295.54625253 -750.46237736 1293.74880554 -752.55859375 1291.95703125 C-757.75700543 1287.42320656 -762.60794614 1282.54196594 -767.47290039 1277.6574707 C-769.05959946 1276.06541034 -770.65157742 1274.4787701 -772.24414062 1272.89257812 C-777.70621457 1267.43433909 -783.00964033 1261.89769779 -788 1256 C-788.845625 1255.03578125 -789.69125 1254.0715625 -790.5625 1253.078125 C-798.87937255 1243.42842031 -806.46472042 1233.26607636 -814 1223 C-814.5273877 1222.28859863 -815.05477539 1221.57719727 -815.59814453 1220.84423828 C-860.87497256 1159.61510549 -887.65653484 1086.0362552 -898 1011 C-898.16516113 1009.86336914 -898.33032227 1008.72673828 -898.50048828 1007.55566406 C-903.81442228 969.73715964 -903.58926853 928.76899249 -898 891 C-897.79897364 889.58972981 -897.59830621 888.17940841 -897.39794922 886.76904297 C-891.35580799 844.78915126 -880.17661719 803.84290667 -863 765 C-862.58427734 764.04802734 -862.16855469 763.09605469 -861.74023438 762.11523438 C-844.76762375 723.41768216 -822.23288045 687.32185306 -795 655 C-794.3517627 654.22438721 -794.3517627 654.22438721 -793.69042969 653.43310547 C-778.90895918 635.77138366 -762.66905178 619.51887507 -746.38875243 603.25408351 C-743.4782713 600.34525685 -740.57070896 597.43351482 -737.66274762 594.52216953 C-732.58037594 589.43467673 -727.496174 584.34901894 -722.41072464 579.26460266 C-714.84846532 571.70387578 -707.28906765 564.14029247 -699.73018577 556.57618917 C-685.44399838 542.28035825 -671.15440988 527.98793022 -656.86368701 513.69663335 C-645.83033296 502.66281902 -634.79778018 491.62820412 -623.76578522 480.59303093 C-620.5856357 477.41198383 -617.4054823 474.23094062 -614.22532773 471.04989856 C-613.03933968 469.86357894 -613.03933968 469.86357894 -611.82939227 468.65329326 C-589.60904378 446.42679598 -567.38759716 424.20139707 -545.16395187 401.97819614 C-544.32705489 401.14131474 -543.4901579 400.30443333 -542.6279004 399.44219188 C-538.3864963 395.20087088 -534.14508423 390.95955785 -529.9036704 386.71824659 C-528.64020321 385.45480931 -528.64020321 385.45480931 -527.35121142 384.16584805 C-525.64785854 382.46253561 -523.94450498 380.75922384 -522.24115074 379.05591276 C-495.71757727 352.53295256 -469.19807299 326.00592955 -442.68164062 299.47583008 C-412.87014588 269.64897609 -383.0552772 239.82550022 -353.23563695 210.00678962 C-350.05673028 206.82795758 -346.87783657 203.64911258 -343.69895172 200.47025871 C-342.52491625 199.29624072 -342.52491625 199.29624072 -341.32716289 198.0985052 C-328.73491844 185.50629151 -316.14588412 172.91087325 -303.55796308 160.3143378 C-290.91285497 147.66075499 -278.26401008 135.01091708 -265.61137578 122.36485983 C-258.09635895 114.8535389 -250.58411939 107.33946537 -243.07585395 99.82139566 C-238.05857103 94.7981151 -233.03765287 89.77848765 -228.01378282 84.76179503 C-225.15295355 81.90484883 -222.29370498 79.0463697 -219.43887386 76.18342871 C-216.83691763 73.57414589 -214.23032171 70.96958991 -211.6200988 68.36857752 C-210.25055218 67.00153824 -208.88586244 65.62963829 -207.52143431 64.25749025 C-201.65444135 58.42387579 -195.47824561 53.1422167 -189 48 C-187.91650461 47.11868878 -186.83313958 46.23721722 -185.75 45.35546875 C-156.18151915 22.04508967 -121.84499792 7.27203906 -85 0 C-84.10796875 -0.17789062 -83.2159375 -0.35578125 -82.296875 -0.5390625 C-56.10242336 -5.47993212 -26.1161523 -5.22510831 0 0 Z " fill="#000000" transform="translate(901,3)"/>
<path d="M0 0 C1.24700684 0.17692383 2.49401367 0.35384766 3.77880859 0.53613281 C55.05893392 8.05193906 104.97534008 22.9921832 151.02490234 46.97558594 C153.16186914 48.08395586 155.30914156 49.17077357 157.45703125 50.2578125 C192.39264333 68.10238585 224.08384896 91.60220737 253 118 C253.92167969 118.82886719 254.84335938 119.65773438 255.79296875 120.51171875 C265.76790371 129.53791485 275.68051356 138.81967189 284.37890625 149.1015625 C286.2809365 151.32900033 288.2660772 153.47022971 290.25 155.625 C295.35676166 161.28665596 300.0198815 167.25444265 304.67089844 173.29003906 C305.85941663 174.81913191 307.07266253 176.32893003 308.2890625 177.8359375 C323.41912313 196.81350495 336.17860425 217.85613672 348 239 C348.42039551 239.7429834 348.84079102 240.4859668 349.27392578 241.25146484 C376.56318816 289.70103356 392.55033461 345.15227576 400 400 C400.16516113 401.17965332 400.33032227 402.35930664 400.50048828 403.57470703 C405.59206927 441.5641143 405.40332397 482.05926861 400 520 C399.85788086 521.02504639 399.85788086 521.02504639 399.71289062 522.07080078 C390.84646463 585.91776052 369.65512744 646.89132652 336 702 C335.4858252 702.85029785 334.97165039 703.7005957 334.44189453 704.57666016 C326.96852915 716.89932283 318.74213928 728.54746101 310 740 C309.50612793 740.64839844 309.01225586 741.29679687 308.50341797 741.96484375 C303.5247169 748.4724102 298.37641282 754.8257545 293.0625 761.0625 C292.63308105 761.5675708 292.20366211 762.0726416 291.76123047 762.59301758 C279.68813559 776.59684773 266.56323354 789.58579736 253.49464143 802.64622884 C250.54635299 805.59377899 247.60095923 808.54421954 244.65517414 811.49427116 C238.82577329 817.33121137 232.99372086 823.16549541 227.16082828 828.99894607 C220.16900835 835.99168363 213.18007125 842.98729983 206.19116846 849.98295272 C189.30821896 866.8819201 172.42023061 883.77584814 155.5316662 900.66920372 C147.53910969 908.66409946 139.5471852 916.65962686 131.55533584 924.65522946 C104.18432858 952.03906579 76.81226781 979.42184842 49.43657112 1006.80099678 C47.72000462 1008.51778491 46.00343819 1010.23457312 44.28687184 1011.95136141 C42.56624928 1013.67220461 40.84562665 1015.39304773 39.12500393 1017.11389077 C35.67334046 1020.56599679 32.22167927 1024.01810509 28.77001953 1027.47021484 C27.9142154 1028.32612836 27.05841127 1029.18204188 26.17667369 1030.06389218 C-1.58764491 1057.83184334 -29.34580783 1085.60593716 -57.10029251 1113.38371725 C-86.46375448 1142.77177996 -115.83265546 1172.15439621 -145.20782292 1201.53075874 C-148.43261694 1204.75572421 -151.65738897 1207.98071166 -154.88214493 1211.20571518 C-155.67613768 1211.9997637 -156.47013043 1212.79381222 -157.28818357 1213.61192281 C-170.05710874 1226.3819979 -182.82109397 1239.15699952 -195.58331596 1251.93377326 C-208.40960001 1264.77442921 -221.2414484 1277.60950366 -234.07893883 1290.43895616 C-241.70155524 1298.0571204 -249.31999772 1305.67940309 -256.93245916 1313.307715 C-262.0226253 1318.40764748 -267.11826041 1323.5020722 -272.21830564 1328.59212525 C-275.12059823 1331.48903801 -278.02052856 1334.38820664 -280.91380166 1337.29412998 C-302.5506964 1359.01968121 -302.5506964 1359.01968121 -315 1368 C-316.17959397 1368.88269626 -317.35731141 1369.76790535 -318.5332135 1370.65551388 C-347.78229011 1392.68908076 -382.21543621 1405.55069948 -418 1412 C-419.79824219 1412.35191406 -419.79824219 1412.35191406 -421.6328125 1412.7109375 C-478.31719343 1422.51349962 -540.54335438 1406.92951912 -587.33911133 1374.12304688 C-598.93791362 1365.81609514 -609.66790967 1356.83436505 -620 1347 C-614.42069066 1340.19836511 -608.20155712 1334.06623175 -601.97987652 1327.86241531 C-600.74066358 1326.62306946 -599.50167118 1325.38350307 -598.26287881 1324.14373684 C-594.85290847 1320.73236043 -591.43982148 1317.32411716 -588.02622913 1313.91636566 C-584.3149383 1310.21031326 -580.60656904 1306.50133945 -576.89783651 1302.79272723 C-570.39555376 1296.29145204 -563.89142533 1289.79202795 -557.38609314 1283.29380417 C-547.71236109 1273.63061273 -538.04151752 1263.96453443 -528.37131219 1254.29781387 C-512.60181803 1238.53412201 -496.83034289 1222.77241421 -481.05766396 1207.01190908 C-464.43729947 1190.40435636 -447.81835223 1173.79538734 -431.20141029 1157.1844101 C-430.70067927 1156.68385897 -430.19994825 1156.18330785 -429.68404355 1155.6675885 C-423.57737018 1149.56309689 -417.47076354 1143.45853851 -411.36417645 1137.35396058 C-402.04980066 1128.0426583 -392.73528179 1118.73149916 -383.42075253 1109.42035041 C-382.37509416 1108.37507152 -381.32943613 1107.3297923 -380.28377844 1106.28451274 C-355.64033859 1081.64999015 -330.99562469 1057.01674233 -306.35040446 1032.38400091 C-304.71516584 1030.74958988 -303.07992855 1029.11517753 -301.44469144 1027.48076498 C-276.25964667 1002.3084346 -251.07395007 977.1367566 -225.887146 951.96618652 C-224.79288437 950.8726292 -223.69862278 949.77907184 -222.60436122 948.68551444 C-217.6872916 943.77161036 -212.77021762 938.85771065 -207.85314311 933.94381146 C-205.67211246 931.76418913 -203.49108222 929.58456638 -201.31005193 927.40494368 C-199.67596203 925.77190902 -198.04187118 924.13887531 -196.40778028 922.50584165 C-171.78950527 897.90347727 -147.17198458 873.30035906 -122.55753803 848.69416428 C-122.0400866 848.17688703 -121.52263517 847.65960979 -120.98950339 847.12665748 C-110.14002893 836.28082181 -99.29075365 825.43478694 -88.44174617 814.58848414 C-83.36122141 809.50922878 -78.28064509 804.43002499 -73.200037 799.35085297 C-72.69983185 798.85078771 -72.1996267 798.35072245 -71.68426382 797.8355037 C-55.57639574 781.73219525 -39.46512122 765.63230001 -23.35197365 749.5342744 C-6.67019418 732.86813633 10.00816837 716.19858851 26.68249563 699.52499393 C36.2955321 689.91261166 45.91137741 680.30305902 55.5312319 670.69749998 C61.95582719 664.28190702 68.37679084 657.86269466 74.79481317 651.44052629 C78.45229239 647.78089515 82.11133717 644.122868 85.7748308 640.46925679 C89.11062986 637.14239639 92.44174653 633.8109199 95.76926288 630.47577575 C96.96339576 629.28051179 98.15919288 628.08690745 99.35689672 626.89522177 C106.37451079 619.9107386 112.87303276 612.79332312 119 605 C119.89215021 603.9040687 120.78519162 602.80886136 121.6796875 601.71484375 C158.76352859 554.79916579 175.54769513 492.73702232 168.75390625 433.484375 C161.64565227 378.57786186 135.61181391 322.53822192 92 287 C90.8264202 286.01480244 89.65328853 285.02907095 88.48046875 284.04296875 C53.43051743 254.80003309 10.52459223 235.91848609 -35 231 C-35.94359375 230.88914062 -36.8871875 230.77828125 -37.859375 230.6640625 C-93.1513711 225.25188299 -151.3828167 240.72677112 -196 274 C-196.60392578 274.44843262 -197.20785156 274.89686523 -197.83007812 275.35888672 C-204.1881548 280.12058546 -210.28277781 285.12874266 -216.10479498 290.53383672 C-216.66274929 291.05076668 -217.2207036 291.56769664 -217.79556561 292.10029114 C-224.05156087 297.93115023 -230.09871594 303.96532251 -236.13578033 310.02111244 C-237.41050551 311.29600867 -238.68545275 312.57068291 -239.96059889 313.8451581 C-243.44225001 317.32623779 -246.92078439 320.81041701 -250.3987953 324.29513319 C-254.19146292 328.09397514 -257.98709443 331.88985383 -261.78235102 335.68610895 C-268.42649821 342.33279711 -275.06880305 348.98132187 -281.70989418 355.63106346 C-291.58551438 365.51951057 -301.46406108 375.40503022 -311.34326778 385.28989403 C-316.05734655 390.00670175 -320.77129924 394.72363545 -325.48519135 399.44062972 C-325.95979574 399.9155461 -326.43440014 400.39046248 -326.92338649 400.87977027 C-337.33388768 411.29718769 -347.74294312 421.71604931 -358.1519291 432.13498068 C-382.39051382 456.39670624 -406.63352345 480.65400617 -430.87817044 504.9096736 C-440.40135632 514.43719381 -449.92440078 523.96485538 -459.44745718 533.49250501 C-461.05155287 535.09737371 -462.65564989 536.70224109 -464.25974707 538.3071083 C-488.90288249 562.96209063 -513.54496122 587.61812895 -538.18643906 612.27476795 C-539.85637912 613.94573485 -541.52632107 615.61669986 -543.19626323 617.28766465 C-568.92089162 643.02807107 -594.64444146 668.76955456 -620.36566162 694.5133667 C-620.91907359 695.06726423 -621.47248555 695.62116177 -622.04266758 696.19184407 C-628.1822507 702.33681687 -634.32181185 708.4818116 -640.46136421 714.62681513 C-641.2887317 715.4549172 -641.2887317 715.4549172 -642.13281369 716.2997486 C-644.916059 719.08546559 -647.69930295 721.87118393 -650.48254529 724.65690388 C-675.63598026 749.83270657 -700.79047128 775.00745193 -725.9496994 800.17746544 C-726.47863773 800.70663149 -727.00757606 801.23579754 -727.55254282 801.78099893 C-738.64293571 812.87614409 -749.73363978 823.97097814 -760.82475164 835.0654046 C-766.01854024 840.26074805 -771.21225615 845.45616416 -776.40592957 850.65162277 C-776.91725223 851.16311876 -777.4285749 851.67461474 -777.95539219 852.20161061 C-794.41508124 868.66695306 -810.86976826 885.13728358 -827.32174693 901.61032989 C-844.35233353 918.662696 -861.38809906 935.70986972 -878.42996895 952.75095989 C-888.25241078 962.57329465 -898.07061745 972.39981932 -907.88283682 982.23236624 C-914.43801867 988.80030655 -920.99863668 995.36278306 -927.56368744 1001.92085872 C-931.30354295 1005.65705486 -935.04099341 1009.39557181 -938.77181751 1013.14078827 C-942.17043503 1016.55242524 -945.57598105 1019.95698712 -948.98702247 1023.35620107 C-950.20765436 1024.5749938 -951.42581162 1025.7962717 -952.64106935 1027.02042308 C-976.53691601 1051.08030564 -1005.06514656 1067.08228416 -1039.61621094 1067.30560303 C-1068.13833902 1067.40057593 -1095.18036516 1060.2977675 -1117 1041 C-1117.84175781 1040.278125 -1118.68351562 1039.55625 -1119.55078125 1038.8125 C-1142.74338356 1018.540969 -1155.98831041 991.63405469 -1159 961 C-1160.33312 938.23889747 -1156.2099593 916.49212687 -1145.75 896.1875 C-1145.42821777 895.55505371 -1145.10643555 894.92260742 -1144.77490234 894.27099609 C-1137.96230941 881.72955916 -1127.96949425 871.531342 -1117.93828392 861.56634712 C-1116.63399377 860.25952894 -1115.33036193 858.95205345 -1114.02732241 857.64398825 C-1110.46093107 854.0676251 -1106.88532968 850.50059918 -1103.30809074 846.9350908 C-1099.41185345 843.04830046 -1095.52437336 839.15276726 -1091.63575518 835.25835693 C-1084.82464773 828.43950428 -1078.00800432 821.62622573 -1071.18767357 814.81659889 C-1061.04576925 804.69056733 -1050.91249069 794.55593561 -1040.78092657 784.41955961 C-1023.73465611 767.3654208 -1006.68108096 750.31860211 -989.62351608 733.27576065 C-972.73129636 716.39809182 -955.84197717 699.5175295 -938.95659256 682.63302231 C-937.8955938 681.57208518 -936.834595 680.51114809 -935.77359616 679.45021104 C-931.50979973 675.18665033 -927.24602824 670.92306467 -922.98228637 666.65944939 C-911.06417666 654.74170141 -899.14557391 642.82444659 -887.22661781 630.90754509 C-886.68389743 630.36491769 -886.14117705 629.8222903 -885.58201059 629.26321965 C-859.19371246 602.87953767 -832.79964459 576.50162968 -806.40527344 550.12402344 C-769.71002574 513.45208286 -733.01935364 476.77557269 -696.33398438 440.09375 C-695.19215756 438.95203558 -694.05033063 437.81032128 -692.90850356 436.66860711 C-688.91977131 432.68026832 -684.9310422 428.69192639 -680.94231344 424.70358412 C-677.53571149 421.29731227 -674.12910865 417.89104131 -670.72250481 414.48477135 C-669.0239046 412.78633659 -667.32530604 411.08790018 -665.62670754 409.3894637 C-630.09232691 373.85851288 -594.55408348 338.33142592 -559.01508985 302.80508922 C-547.92506346 291.71900441 -536.8352582 280.63269855 -525.74601698 269.54582834 C-503.53630429 247.34091524 -481.32545865 225.13713867 -459.11000751 202.93796654 C-449.92108712 193.75570094 -440.73292393 184.57268107 -431.54699898 175.38741875 C-423.93364303 167.77461412 -416.31864529 160.16345693 -408.70137408 152.55456977 C-404.86499552 148.72231798 -401.02940728 144.88928419 -397.19598977 141.05407025 C-393.7089674 137.5654516 -390.2196595 134.07913609 -386.72851083 130.59464687 C-385.47357247 129.34130211 -384.21946734 128.08712238 -382.96629904 126.83200781 C-376.82106526 120.67811843 -370.67400441 114.58812017 -364 109 C-363.32038394 108.42556516 -362.64076787 107.85113033 -361.94055738 107.25928838 C-340.11762654 88.85901645 -316.88851931 72.03923222 -292 58 C-291.17193848 57.53062012 -290.34387695 57.06124023 -289.49072266 56.57763672 C-236.67916101 26.83190171 -180.01075468 8.15093148 -120 0 C-118.82034668 -0.16516113 -117.64069336 -0.33032227 -116.42529297 -0.50048828 C-78.44210353 -5.59123592 -37.93488637 -5.40955351 0 0 Z " fill="#000000" transform="translate(1997,494)"/>
<path d="M0 0 C3.82279092 0.01611344 7.64452522 0.0000049 11.46728516 -0.01904297 C35.13133006 -0.04001319 58.62168692 1.99723309 81.94775391 6.01611328 C82.67880341 6.14016541 83.40985291 6.26421753 84.16305542 6.39202881 C123.39168837 13.11407478 161.04391622 25.07811908 197.32275391 41.39111328 C198.11198242 41.74093262 198.90121094 42.09075195 199.71435547 42.45117188 C236.5584192 58.83806986 270.4557372 81.58426325 301.32275391 107.39111328 C302.10489258 108.04370117 302.10489258 108.04370117 302.90283203 108.70947266 C333.54515177 134.35930111 360.39871665 161.94482346 365.32275391 203.39111328 C365.60743304 208.14515304 365.65726985 212.87937978 365.63525391 217.64111328 C365.62961426 218.92018555 365.62397461 220.19925781 365.61816406 221.51708984 C365.27882987 247.95827904 356.14386739 272.02437293 339.32275391 292.39111328 C338.51322266 293.37724609 337.70369141 294.36337891 336.86962891 295.37939453 C316.0556683 319.40269338 287.45956763 331.49761684 256.32275391 334.39111328 C228.86926529 336.15696582 198.12711291 327.85045862 176.99853516 309.61767578 C174.03389981 306.94964129 171.18273209 304.17046893 168.32275391 301.39111328 C166.97864204 300.19224427 165.62559471 299.00324859 164.26025391 297.82861328 C162.1027315 295.96730809 159.99321531 294.0813684 157.91650391 292.12939453 C145.31756848 280.32715649 131.22258161 271.03694327 116.32275391 262.39111328 C115.68370117 262.01857422 115.04464844 261.64603516 114.38623047 261.26220703 C90.84655035 247.69654342 64.09247475 239.45451639 37.32275391 235.39111328 C36.56140137 235.27396973 35.80004883 235.15682617 35.015625 235.03613281 C-24.35154217 226.34100691 -85.26089827 243.38575004 -133.48974609 278.26611328 C-134.19317139 278.76981445 -134.89659668 279.27351563 -135.62133789 279.79248047 C-153.14386055 292.8308221 -168.10670263 309.6826561 -183.50207157 325.10607529 C-187.02771711 328.63700437 -190.55632905 332.16496706 -194.08455724 335.69331515 C-200.25644789 341.86620889 -206.4264966 348.04093881 -212.59531975 354.21689796 C-221.76808892 363.4002479 -230.94378088 372.58067336 -240.12010352 381.76047239 C-255.08600652 396.73216504 -270.04992487 411.7058396 -285.01262292 426.68073522 C-300.76398416 442.44492084 -316.51677078 458.20768006 -332.27156639 473.96843338 C-332.74686306 474.44390995 -333.22215973 474.91938652 -333.71185933 475.40927147 C-339.50846143 481.20805538 -345.30513036 487.0067725 -351.1018188 492.80547012 C-359.94121405 501.64793815 -368.78046576 510.49054968 -377.6197068 519.33317187 C-378.61180745 520.325652 -379.60390844 521.31813179 -380.59600976 522.31061125 C-403.95451286 545.67802304 -427.31173568 569.04671436 -450.66845023 592.41591386 C-452.21742613 593.96571735 -453.76640335 595.51551952 -455.31538077 597.06532149 C-479.19343356 620.9561001 -503.0708344 644.84753008 -526.94714355 668.74005127 C-527.98589264 669.77950466 -529.02464177 670.81895802 -530.06339093 671.85841134 C-534.73154726 676.52973347 -539.39969936 681.20105982 -544.06785105 685.87238659 C-546.13867792 687.94462179 -548.20950522 690.01685658 -550.28033246 692.0890914 C-551.83186701 693.64168119 -553.38340061 695.19427192 -554.93493416 696.74686271 C-578.2969298 720.12476052 -601.65967474 743.50190852 -625.02549267 766.8759861 C-625.51622523 767.36689285 -626.00695778 767.85779959 -626.51256103 768.3635823 C-636.79931807 778.65397729 -647.0862738 788.94417362 -657.37349722 799.23410238 C-662.18988668 804.05176128 -667.0062246 808.8694717 -671.82253075 813.6872139 C-672.29671179 814.16153483 -672.77089283 814.63585577 -673.25944299 815.12455006 C-688.5481798 830.41785215 -703.83350154 845.71456221 -719.11696559 861.01313354 C-734.92156715 876.83334353 -750.72954724 892.6501697 -766.54158787 908.46294461 C-775.6648883 917.58690118 -784.78533696 926.71368772 -793.90183859 935.84443765 C-799.97967424 941.931233 -806.06107704 948.01444824 -812.1454761 954.09468274 C-815.6194313 957.56647272 -819.09172673 961.03988198 -822.55969671 964.51765148 C-825.70748925 967.67428035 -828.85975233 970.82636824 -832.01581853 973.97472434 C-833.15632341 975.11408332 -834.29511359 976.25516167 -835.432073 977.39805868 C-836.96386737 978.93737698 -838.50157389 980.4705237 -840.04104501 982.00215852 C-840.89464646 982.85629568 -841.74824792 983.71043283 -842.62771608 984.59045293 C-844.67724609 986.39111328 -844.67724609 986.39111328 -846.67724609 986.39111328 C-846.67724609 987.05111328 -846.67724609 987.71111328 -846.67724609 988.39111328 C-848.03379822 989.72148132 -848.03379822 989.72148132 -849.9777832 991.31176758 C-855.04531668 995.6246876 -859.67353134 1000.33498284 -864.32440376 1005.0853672 C-866.45795483 1007.26178793 -868.60154139 1009.42821729 -870.74443722 1011.59543133 C-874.71222264 1015.60846336 -878.67610498 1019.62515204 -882.62280273 1023.65893555 C-906.81585082 1048.36893274 -906.81585082 1048.36893274 -919.67724609 1055.39111328 C-920.33859558 1055.75840042 -920.99994507 1056.12568756 -921.68133545 1056.50410461 C-939.46908423 1066.35293235 -958.08063539 1070.80012226 -978.42724609 1070.70361328 C-979.65789795 1070.69869873 -980.8885498 1070.69378418 -982.15649414 1070.6887207 C-991.36676985 1070.5703523 -999.78436145 1069.83268652 -1008.67724609 1067.39111328 C-1009.87349609 1067.07400391 -1011.06974609 1066.75689453 -1012.30224609 1066.43017578 C-1028.85005993 1061.48686699 -1043.79988602 1052.82829771 -1056.67724609 1041.39111328 C-1057.56669922 1040.60220703 -1058.45615234 1039.81330078 -1059.37255859 1039.00048828 C-1080.17958004 1019.30230497 -1094.04918838 990.01118888 -1094.88037109 961.30908203 C-1095.32277923 929.0273778 -1086.61167621 899.31686553 -1064.1935637 875.31763971 C-1063.41264706 874.4773275 -1063.41264706 874.4773275 -1062.61595433 873.62003928 C-1056.76786491 867.36347648 -1050.72763995 861.30291479 -1044.6661644 855.25419044 C-1043.39237146 853.97935165 -1042.11879729 852.70429422 -1040.84541929 851.42904097 C-1037.36739051 847.94714438 -1033.88628992 844.46833361 -1030.40464939 840.99004902 C-1026.60919801 837.19714625 -1022.81666022 833.40133195 -1019.02374101 829.60589731 C-1012.38301721 822.96156922 -1005.74044449 816.31909412 -999.09664154 809.677845 C-989.21722615 799.80221685 -979.34067656 789.92372631 -969.4646821 780.04467725 C-952.84787098 763.42290843 -936.2286764 746.80352478 -919.6080246 730.18559647 C-919.10250371 729.68015838 -918.59698283 729.17472029 -918.07614312 728.65396589 C-917.31664338 727.89459053 -917.31664338 727.89459053 -916.5418002 727.11987426 C-901.10544791 711.68604687 -885.67003397 696.25128181 -870.2355423 680.81559372 C-869.20128918 679.78126313 -868.16703591 678.74693269 -867.13278247 677.71260242 C-862.97642245 673.55593192 -858.82006652 669.39925733 -854.66371657 665.24257676 C-843.04606382 653.62400711 -831.42823796 642.00561057 -819.81027603 630.38735008 C-819.28127493 629.85833533 -818.75227382 629.32932058 -818.20724238 628.78427508 C-801.35688458 611.93350814 -784.50575929 595.08350891 -767.65410995 578.23403358 C-767.10771688 577.68771076 -766.56132381 577.14138794 -765.99837338 576.57850988 C-757.12569166 567.70697307 -748.25297266 558.83547355 -739.38025051 549.96397719 C-704.17892975 514.76751438 -668.98015329 479.56850917 -633.78369141 444.3671875 C-624.9106788 435.49295369 -616.03766111 426.61872495 -607.164608 417.74453163 C-606.61825376 417.19810694 -606.07189951 416.65168225 -605.50898908 416.08869923 C-588.6723126 399.24986667 -571.83501536 382.41165502 -554.99704361 365.57411766 C-554.20420783 364.78130225 -554.20420783 364.78130225 -553.39535516 363.97247037 C-541.7929952 352.37042289 -530.19047468 340.76853599 -518.58780935 329.1667939 C-514.43645823 325.01577192 -510.28511514 320.86474191 -506.13377434 316.71370961 C-505.10104794 315.68106059 -504.06832086 314.64841224 -503.03559311 313.61576457 C-487.60079751 298.18216249 -472.16710715 282.74745593 -456.73417137 267.31199413 C-456.2283193 266.80605927 -455.72246723 266.30012441 -455.20128632 265.77885818 C-454.69636917 265.27385836 -454.19145203 264.76885853 -453.67123436 264.24855568 C-436.64460765 247.21917127 -419.6160957 230.19167429 -402.58545324 213.16630585 C-392.76520557 203.34899888 -382.94634008 193.53031426 -373.12944668 183.70965312 C-366.57651463 177.15448311 -360.02177386 170.60112547 -353.4655433 164.04925451 C-349.72734636 160.31344191 -345.989948 156.57683975 -342.25473663 152.83804186 C-338.85684143 149.43691722 -335.45665483 146.03810101 -332.05462568 142.64111156 C-330.83195066 141.41944375 -329.61011166 140.19693851 -328.38921426 138.97349421 C-322.82915083 133.40265577 -317.28252418 127.86173756 -311.28239776 122.75790646 C-308.73567558 120.58936216 -306.31223465 118.29587185 -303.86474609 116.01611328 C-298.31668957 110.90348931 -292.5871398 106.08361315 -286.67724609 101.39111328 C-286.0673584 100.89804688 -285.4574707 100.40498047 -284.82910156 99.89697266 C-267.51521308 85.91056409 -249.00638131 73.42824005 -229.67724609 62.39111328 C-229.02224121 62.0135791 -228.36723633 61.63604492 -227.69238281 61.24707031 C-180.19531966 33.96104928 -128.53752545 15.27314697 -74.55224609 6.07861328 C-73.87274902 5.96100647 -73.19325195 5.84339966 -72.49316406 5.722229 C-48.47109497 1.62530047 -24.3512112 -0.12133605 0 0 Z " fill="#000000" transform="translate(1441.67724609375,-0.39111328125)"/>
<path d="M0 0 C22.84484735 20.07202984 37.95840446 47.60021306 40.6875 78.125 C42.62185547 109.93253215 34.69162783 140.50958318 13.32815463 164.80853454 C6.31118186 172.47051409 -0.92507095 179.87873864 -8.27862072 187.21696186 C-9.55977549 188.49916211 -10.84071143 189.78158104 -12.12145075 191.06419626 C-15.62457879 194.57119747 -19.13078551 198.07510613 -22.63752655 201.5784941 C-26.45844921 205.3968708 -30.27646144 209.21815587 -34.09485275 213.03906363 C-40.78185022 219.72966732 -47.47069915 226.41841551 -54.16077614 233.10593987 C-64.10901627 243.0503945 -74.0543928 252.99770933 -83.99921242 262.94558445 C-100.73138991 279.68272093 -117.46595252 296.41747074 -134.20197105 313.15076637 C-134.71110986 313.65982239 -135.22024868 314.1688784 -135.74481594 314.69336036 C-136.25477226 315.20323376 -136.76472859 315.71310716 -137.29013814 316.23843126 C-152.83443707 331.7802057 -168.37779817 347.32291732 -183.92023659 362.86655235 C-184.96156089 363.90795413 -186.00288535 364.94935575 -187.04420997 365.99075721 C-191.22895605 370.17581376 -195.41369803 374.3608744 -199.59843403 378.54594103 C-211.29566776 390.24409169 -222.99307463 401.94206922 -234.69061756 413.6399107 C-235.22325426 414.17256104 -235.75589096 414.70521139 -236.30466816 415.25400265 C-253.27217972 432.22192337 -270.24045886 449.18907628 -287.20926189 466.15570545 C-287.75949363 466.70586694 -288.30972537 467.25602843 -288.8766308 467.82286148 C-297.81174071 476.75682648 -306.7468879 485.69075419 -315.68203824 494.62467875 C-351.12879058 530.06657346 -386.57299913 565.51101008 -422.01489258 600.95776367 C-430.94910279 609.89319508 -439.88331807 618.82862142 -448.81756878 627.76401234 C-449.64274876 628.58929799 -449.64274876 628.58929799 -450.48459905 629.43125608 C-467.43734797 646.38616109 -484.39071766 663.34044518 -501.34476185 680.29405499 C-502.14306781 681.09234057 -502.14306781 681.09234057 -502.95750117 681.90675314 C-514.63995136 693.58889086 -526.32256213 705.270868 -538.00531769 716.95270033 C-542.18535314 721.13240664 -546.36538056 725.31212098 -550.54540569 729.49183761 C-551.58527288 730.53162741 -552.62514074 731.57141655 -553.66500928 732.61120501 C-569.20710033 748.1521025 -584.74808608 763.69410456 -600.28831733 779.23686176 C-601.05239813 780.00106675 -601.05239813 780.00106675 -601.8319149 780.78071022 C-602.3403611 781.2892391 -602.84880729 781.79776797 -603.37266095 782.32170682 C-620.51834981 799.47015339 -637.665924 816.6167126 -654.81562861 833.76114319 C-664.70474652 843.64732034 -674.59248217 853.53487525 -684.47824581 863.42440656 C-691.07712028 870.02551893 -697.67780338 876.62481905 -704.27997638 883.22263236 C-708.04443119 886.98470274 -711.80808727 890.74756289 -715.56955656 894.51261852 C-718.99129004 897.93758123 -722.41531461 901.36023593 -725.84118209 904.7810634 C-727.07248882 906.01136285 -728.30295937 907.2424999 -729.53248855 908.47457579 C-735.61834397 914.57214155 -741.73847996 920.54782977 -748.3125 926.125 C-749.8573126 927.5382355 -751.39945325 928.95440409 -752.9375 930.375 C-758.58840801 935.47206711 -764.54404413 940.13046151 -770.56738281 944.77392578 C-772.19649761 946.03519065 -773.81358506 947.31194821 -775.4296875 948.58984375 C-851.2598067 1008.11552256 -948.04925973 1041.98343737 -1044.3125 1044.125 C-1045.77478027 1044.15787109 -1045.77478027 1044.15787109 -1047.26660156 1044.19140625 C-1134.68513093 1045.81880673 -1222.42679516 1023.71258615 -1297.3125 978.125 C-1298.2101709 977.57875977 -1299.1078418 977.03251953 -1300.03271484 976.46972656 C-1313.29325972 968.33758202 -1325.96053309 959.57499878 -1338.3125 950.125 C-1338.95123047 949.6393457 -1339.58996094 949.15369141 -1340.24804688 948.65332031 C-1354.43776852 937.83308967 -1367.74085234 925.99946075 -1380.65673828 913.69726562 C-1382.12462926 912.30339687 -1383.60626613 910.92403566 -1385.08984375 909.546875 C-1404.34227685 891.1764649 -1418.07393811 864.59959172 -1419.48950195 837.77026367 C-1420.03842761 806.62146608 -1420.03842761 806.62146608 -1415.3125 792.125 C-1415.10351074 791.45549316 -1414.89452148 790.78598633 -1414.67919922 790.09619141 C-1409.76566984 774.67838273 -1401.98785276 761.24750274 -1391.3125 749.125 C-1390.45509035 748.04423153 -1389.60031671 746.96135781 -1388.75 745.875 C-1371.65458679 726.58786715 -1343.92164342 712.33485508 -1318.3125 710.125 C-1295.38334054 708.85582116 -1275.24367779 710.59127861 -1254.3125 720.125 C-1252.74242187 720.81916016 -1252.74242187 720.81916016 -1251.140625 721.52734375 C-1238.1423343 727.60556 -1227.69295136 737.08311688 -1217.3984375 746.90234375 C-1181.25615343 781.16969697 -1134.75768928 803.06322334 -1085.3125 809.125 C-1084.23512573 809.26639404 -1084.23512573 809.26639404 -1083.13598633 809.41064453 C-1074.99053617 810.36752309 -1066.81506489 810.36856015 -1058.625 810.375 C-1057.85104889 810.37567474 -1057.07709778 810.37634949 -1056.2796936 810.37704468 C-1043.09486088 810.35886573 -1030.29522593 809.57402517 -1017.3125 807.125 C-1015.97203613 806.87556641 -1015.97203613 806.87556641 -1014.60449219 806.62109375 C-972.52599521 798.51464053 -933.27563171 779.29212932 -902.12109375 749.7578125 C-900.08559437 747.84970877 -898.04206447 746.03938044 -895.91949672 744.23599088 C-889.9394489 739.0099569 -884.39521522 733.33814284 -878.79195881 727.71633339 C-877.52306156 726.44696165 -876.25394249 725.17781162 -874.98462275 723.90886235 C-871.49583735 720.41982265 -868.01018953 716.92766309 -864.52503567 713.43499641 C-860.7333227 709.63623656 -856.93866487 705.84042034 -853.1443674 702.04424226 C-846.49416438 695.38995187 -839.84580186 688.7338271 -833.19863319 682.07650566 C-823.31391935 672.1767372 -813.42628983 662.27988475 -803.53796953 652.38371872 C-798.82453931 647.66652483 -794.11122921 642.94921093 -789.39797246 638.23184371 C-788.92332758 637.75678554 -788.44868269 637.28172738 -787.95965462 636.79227351 C-780.57514727 629.40128949 -773.1912589 622.0096874 -765.80774558 614.61771035 C-765.30906808 614.11846162 -764.81039057 613.61921289 -764.29660163 613.1048354 C-762.27141417 611.07732485 -760.24623006 609.04981095 -758.22104832 607.02229468 C-733.45217826 582.22487755 -708.67847181 557.43229764 -683.90259925 532.64187706 C-678.10304499 526.83891611 -672.30355058 521.03589536 -666.50405914 515.23287165 C-665.44176328 514.16992929 -664.37946742 513.10698694 -663.31717154 512.0440446 C-661.18605225 509.91162816 -659.05493358 507.77921109 -656.92381521 505.64679373 C-654.78482101 503.50649618 -652.64582476 501.36620069 -650.50682681 499.22590691 C-625.83888673 474.54301684 -601.17176785 449.85930621 -576.50540314 425.17484181 C-574.83331977 423.50153235 -573.16123394 421.82822535 -571.48914788 420.15491858 C-545.73666874 394.38360402 -519.98569314 368.6107888 -494.23828125 342.83441162 C-493.68449493 342.28000283 -493.13070861 341.72559404 -492.56014088 341.15438499 C-483.63090299 332.21510126 -474.70174365 323.27573908 -465.77260127 314.33635995 C-440.04847517 288.5827434 -414.32313501 262.83034342 -388.59106731 237.08466148 C-388.06179339 236.5551063 -387.53251946 236.02555111 -386.98720694 235.4799488 C-375.88967209 224.3765482 -364.79171408 213.27357067 -353.69320841 202.17114046 C-348.49581305 196.97190471 -343.29851145 191.77257524 -338.10126305 186.5731926 C-337.58957518 186.06129798 -337.07788732 185.54940337 -336.55069376 185.0219968 C-320.07557761 168.54013034 -303.60705565 152.05169371 -287.14207138 135.55970621 C-270.09542988 118.48515164 -253.04184715 101.41756274 -235.98009703 84.35810472 C-226.14496836 74.52384427 -216.31549141 64.68401193 -206.49397921 54.83615224 C-199.93292967 48.25859818 -193.36464297 41.68833089 -186.79043339 35.1239303 C-183.04489265 31.3835601 -179.30258187 27.64010918 -175.5690764 23.88772245 C-172.16852882 20.47010003 -168.75879325 17.06192667 -165.34168417 13.66086559 C-164.11869765 12.44043027 -162.89901385 11.21667334 -161.68319063 9.98910165 C-118.3428439 -33.74385644 -48.14914772 -40.8194076 0 0 Z " fill="#000000" transform="translate(2012.3125,864.875)"/>
</svg>
